<svg xmlns="http://www.w3.org/2000/svg" viewBox="0 0 148.694 41.571">
  <defs>
    <style>
      .cls-1, .cls-2 {
        fill: #fff;
      }

      .cls-1 {
        opacity: 0.85;
      }
    </style>
  </defs>
  <g id="Group_113" data-name="Group 113" transform="translate(0.015 0.009)">
    <path id="Path_680" data-name="Path 680" class="cls-1" d="M72.735,18.027s.3-.173.606-1.3a8.953,8.953,0,0,0-.216-5.2A15.175,15.175,0,0,0,71.133,9.15,19.932,19.932,0,0,0,66.5,5.6s2.511,2.425,2.165,5.326a5.972,5.972,0,0,1-.693,2.338,20.279,20.279,0,0,1,2.555,2.122A11.948,11.948,0,0,1,72.735,18.027Z" transform="translate(-37.715 -3.18)"/>
    <path id="Path_681" data-name="Path 681" class="cls-1" d="M34.062,2.636s1.515-.13,2.208-.13a32.339,32.339,0,0,1,3.247.087s-.433-.866-2.511-1.732A14.045,14.045,0,0,0,32.59-.005a16.831,16.831,0,0,0-6.625,1.342,16.959,16.959,0,0,0-2.165,1s.26-.13.693-.3a19.229,19.229,0,0,1,3.637-.866C32.546.514,34.062,2.636,34.062,2.636Z" transform="translate(-13.503 0)"/>
    <path id="Path_682" data-name="Path 682" class="cls-1" d="M17.124,20.643s3.724.866,9.006-1.472c6.668-2.944,7.1-6.971,7.1-6.971a20.018,20.018,0,0,1,6.278,2.555,19.356,19.356,0,0,1,3.767,3.2s-.649,7.4-11.128,12.21a30.215,30.215,0,0,1-15.847,2.6,27.113,27.113,0,0,1-.3-3.983A34.8,34.8,0,0,1,17.124,20.643Z" transform="translate(-9.079 -6.923)"/>
    <path id="Path_683" data-name="Path 683" class="cls-1" d="M.208,36.9a7.163,7.163,0,0,0,3.118,5.023c2.338,1.386,7.231,1.948,12.557.866a22.636,22.636,0,0,0,11.171-5.672,47.707,47.707,0,0,1,3.68,5.5A29.981,29.981,0,0,1,32.9,47.681s-3.637,3.68-10.911,5.889a26.129,26.129,0,0,1-10.132,1.169A15.287,15.287,0,0,1,4.062,52.4,21.909,21.909,0,0,1,.9,46.556,23.216,23.216,0,0,1,.208,36.9Z" transform="translate(0 -20.928)"/>
    <path id="Path_684" data-name="Path 684" class="cls-1" d="M40.1,46.658a18.43,18.43,0,0,0,1.342,2.771,14.135,14.135,0,0,0,2.425,3.334,30,30,0,0,0,9.656-3.983,19.7,19.7,0,0,0,5.932-6.192A19.094,19.094,0,0,0,61.273,30.9,13.2,13.2,0,0,0,60.061,27a14.093,14.093,0,0,1-5.282,12.816A36.334,36.334,0,0,1,40.1,46.658Z" transform="translate(-22.746 -15.315)"/>
    <path id="Path_685" data-name="Path 685" class="cls-1" d="M41.969,74.4a31.685,31.685,0,0,1-12.643,4.546A18.875,18.875,0,0,1,19.8,77.864s5.542,3.724,11.777,3.334a21.59,21.59,0,0,0,10.132-3.464,5.845,5.845,0,0,0,.476-.39,10.661,10.661,0,0,0,0-1.429A6.692,6.692,0,0,0,41.969,74.4Z" transform="translate(-11.235 -42.191)"/>
    <path id="Path_686" data-name="Path 686" class="cls-1" d="M12.462,15.988c-1.6.043-3.983-.13-4.113-2.814C8.219,11.052,10.557,8.8,10.557,8.8A31.517,31.517,0,0,0,7.83,11.181a19.99,19.99,0,0,0-2.771,3.983,2.717,2.717,0,0,0-.216,1.775,5.511,5.511,0,0,0,3.074,3.983c4.546,2.208,9.569.216,9.569.216L15.97,15.425A12.569,12.569,0,0,1,12.462,15.988Z" transform="translate(-2.729 -4.995)"/>
    <path id="Path_687" data-name="Path 687" class="cls-2" d="M69.9,20.692a8.257,8.257,0,0,0,.433-1.039c.13-.476.216-.953.216-.953a17.584,17.584,0,0,1,1.819,1.429c.606.563,1.515,1.515,1.515,1.515a8.683,8.683,0,0,1-.216,1.082c-.087.346-.173.52-.3.953,0,0-1-1-1.732-1.645C70.939,21.428,69.9,20.692,69.9,20.692Z" transform="translate(-39.643 -10.608)"/>
    <path id="Path_688" data-name="Path 688" class="cls-2" d="M17.1,34.177s.216-1.212.346-1.819.26-1.169.26-1.169a11.878,11.878,0,0,0,2.858.13,24.192,24.192,0,0,0,3.074-.52l.779,2.858a15.96,15.96,0,0,1-3.854.779A13.709,13.709,0,0,1,17.1,34.177Z" transform="translate(-9.704 -17.469)"/>
    <path id="Path_689" data-name="Path 689" class="cls-2" d="M16,43.532a25.429,25.429,0,0,0,10.089-.649A22.246,22.246,0,0,0,36.134,37.6s.693.866,1.039,1.342,1.169,1.689,1.169,1.689A27.806,27.806,0,0,1,27.171,46.3c-6.928,1.775-10.911.823-10.911.823a16.384,16.384,0,0,1-.216-1.948C16.043,44.7,16,43.532,16,43.532Z" transform="translate(-9.081 -21.325)"/>
    <path id="Path_690" data-name="Path 690" class="cls-2" d="M41.139,65.636a11.417,11.417,0,0,1-.736-1.515c-.13-.26-.3-.866-.3-.779a33.158,33.158,0,0,0,7.491-2.425A31.338,31.338,0,0,0,54.778,56.5s.13.346.39.953c.216.606.476,1.386.476,1.386a26.347,26.347,0,0,1-6.408,4.2A35.7,35.7,0,0,1,41.139,65.636Z" transform="translate(-22.746 -32.041)"/>
    <path id="Path_691" data-name="Path 691" class="cls-2" d="M46.8,78.643s2.641-.649,5.066-1.515A31.657,31.657,0,0,0,57.278,74.4a2.492,2.492,0,0,1,.13.563c.043.3.087.563.087.563a23.594,23.594,0,0,1-5.066,2.641,32.493,32.493,0,0,1-4.763,1.472,4.894,4.894,0,0,1-.476-.476Z" transform="translate(-26.545 -42.191)"/>
    <g id="Group_112" data-name="Group 112" transform="translate(47.187 3.632)">
      <path id="Path_692" data-name="Path 692" class="cls-2" d="M115.711,38.679A14.276,14.276,0,0,1,109,37.207V8.5h4.59v9.829a9.144,9.144,0,0,1,3.854-.779c4.979,0,8.183,3.854,8.183,9.959C125.627,34.349,122.12,38.679,115.711,38.679Zm.563-18.445a5.838,5.838,0,0,0-2.685.563V35.389a6.454,6.454,0,0,0,2.338.39c3.594,0,5.109-3.161,5.109-7.924C121.037,23.048,119.392,20.234,116.274,20.234Z" transform="translate(-109 -8.457)"/>
      <path id="Path_693" data-name="Path 693" class="cls-2" d="M159.746,41.34c.346,3.55,2.338,5.672,5.715,5.672a11.31,11.31,0,0,0,5.023-1.169l1.082,2.944a15.631,15.631,0,0,1-6.8,1.472c-6.192,0-9.569-4.287-9.569-10.695S158.447,29,163.99,29c5.282,0,8.313,3.464,8.313,9.829v.606Zm4.113-9.526c-2.9,0-4.373,2.771-4.373,6.8v.433l8.4-1.342C167.843,33.936,166.631,31.814,163.86,31.814Z" transform="translate(-135.196 -20.08)"/>
      <path id="Path_694" data-name="Path 694" class="cls-2" d="M215.817,49.983V36c0-2.641-1.039-3.94-3.9-3.94a7.219,7.219,0,0,0-2.988.52V49.983H204.3V30.672a19.59,19.59,0,0,1,7.621-1.472c5.932,0,8.53,2.511,8.53,6.841V49.983Z" transform="translate(-163.036 -20.194)"/>
      <path id="Path_695" data-name="Path 695" class="cls-2" d="M255.355,15.933a2.459,2.459,0,0,1-2.555-2.295,2.494,2.494,0,0,1,2.555-2.338,2.465,2.465,0,0,1,2.555,2.338A2.43,2.43,0,0,1,255.355,15.933Zm-2.338,23.9V19.4h4.633V39.834Z" transform="translate(-190.536 -10.044)"/>
      <path id="Path_696" data-name="Path 696" class="cls-2" d="M280.084,20.7V38.19h-4.633V20.7H273.2V17.753h2.252V15.241c0-4.243,2.468-6.841,6.8-6.841a7.443,7.443,0,0,1,1.126.087v2.9h-.39c-2.078,0-2.944,1.386-2.944,3.767v2.6h3.334v2.9h-3.291Z" transform="translate(-202.103 -8.4)"/>
      <path id="Path_697" data-name="Path 697" class="cls-2" d="M310.657,58.577h-4.893l3.421-8.14L302.3,30h4.979l3.551,13.466a19.675,19.675,0,0,1,.476,2.858h.087a20.848,20.848,0,0,1,.563-2.858L315.723,30H320.1Z" transform="translate(-218.604 -20.647)"/>
    </g>
  </g>
</svg>
